<?xml version="1.0" standalone="no"?>
<!DOCTYPE svg PUBLIC "-//W3C//DTD SVG 20010904//EN"
 "http://www.w3.org/TR/2001/REC-SVG-20010904/DTD/svg10.dtd">
<svg version="1.0" xmlns="http://www.w3.org/2000/svg"
 width="159.000000pt" height="85.000000pt" viewBox="0 0 159.000000 85.000000"
 preserveAspectRatio="xMidYMid meet">

<g transform="translate(0.000000,85.000000) scale(0.100000,-0.100000)"
fill="#000000" stroke="none">
<path d="M1186 834 c-20 -20 -20 -38 0 -59 21 -20 43 -16 61 12 13 19 12 24
-6 42 -25 25 -35 26 -55 5z"/>
<path d="M70 802 c0 -33 58 -42 85 -12 18 19 17 20 -3 20 -11 0 -22 -6 -25
-12 -4 -10 -7 -10 -18 0 -15 13 -39 16 -39 4z"/>
<path d="M912 798 c-7 -7 -12 -16 -12 -20 0 -15 27 -8 45 12 18 19 17 20 -1
20 -11 0 -25 -5 -32 -12z"/>
<path d="M63 740 c-34 -14 -55 -55 -55 -109 0 -58 13 -86 52 -106 58 -30 130
-9 148 45 10 29 10 30 -16 30 -16 0 -32 -8 -40 -20 -14 -22 -51 -27 -70 -8 -7
7 -12 33 -12 58 0 60 27 89 65 72 14 -6 25 -16 25 -22 0 -5 11 -10 25 -10 32
0 33 23 0 55 -25 26 -78 33 -122 15z"/>
<path d="M253 744 c-9 -4 -13 -37 -13 -115 0 -124 -1 -123 96 -117 42 3 49 6
52 26 3 20 0 22 -48 22 -48 0 -51 2 -48 23 2 18 10 23 46 25 33 3 42 7 42 22
0 15 -9 19 -42 22 -36 2 -44 7 -46 26 -3 20 0 22 48 22 48 0 51 2 48 23 -3 20
-9 22 -63 24 -33 1 -66 -1 -72 -3z"/>
<path d="M436 729 c-29 -22 -35 -64 -13 -92 6 -9 30 -23 52 -30 22 -8 41 -21
43 -30 5 -24 -35 -31 -65 -12 -22 15 -27 15 -39 3 -25 -24 18 -53 78 -53 40 0
53 5 69 24 10 13 19 34 19 48 0 28 -41 73 -68 73 -29 0 -53 22 -42 40 8 12 14
13 41 3 25 -10 36 -10 47 -1 12 10 11 15 -8 30 -30 24 -81 23 -114 -3z"/>
<path d="M600 630 l0 -121 28 3 c21 2 28 9 32 33 5 31 26 73 32 65 2 -3 13
-26 26 -52 17 -39 27 -48 47 -48 32 0 31 6 -4 90 l-29 68 24 33 c31 42 30 49
-5 49 -22 0 -34 -9 -57 -42 l-29 -43 -5 40 c-4 35 -9 40 -32 43 l-28 3 0 -121z"/>
<path d="M842 646 c-39 -127 -39 -136 -7 -136 18 0 28 7 35 25 8 20 16 25 45
25 29 0 37 -5 45 -25 7 -19 17 -25 41 -25 21 0 30 4 27 13 -3 6 -20 60 -38
120 l-33 107 -42 0 -42 0 -31 -104z m88 -5 c8 -28 7 -31 -15 -31 -22 0 -23 2
-14 32 5 18 9 35 9 37 0 12 12 -10 20 -38z"/>
<path d="M1086 734 c-11 -10 -16 -34 -16 -75 l0 -59 110 0 c67 0 110 -4 110
-10 0 -6 -43 -10 -110 -10 -102 0 -110 -1 -110 -19 0 -42 25 -51 144 -51 74 0
116 4 124 12 7 7 12 39 12 75 l0 63 -105 0 c-63 0 -105 4 -105 10 0 6 43 10
109 10 108 0 109 0 104 23 -10 40 -30 47 -144 47 -84 0 -111 -3 -123 -16z"/>
<path d="M480 475 c14 -17 46 -20 55 -4 11 16 -3 23 -19 10 -10 -8 -16 -9 -21
-1 -3 5 -11 10 -17 10 -7 0 -6 -6 2 -15z"/>
<path d="M43 440 c-34 -14 -41 -59 -13 -82 12 -10 28 -18 35 -18 7 0 18 -7 25
-15 17 -21 -15 -33 -43 -16 -29 18 -50 -5 -23 -25 28 -20 73 -17 96 6 34 34
19 72 -35 90 -19 6 -35 16 -35 21 0 15 30 23 42 11 11 -11 38 -6 38 7 0 8 -45
31 -58 30 -4 0 -17 -4 -29 -9z"/>
<path d="M324 439 c-48 -24 -59 -105 -19 -144 40 -40 96 -32 121 17 39 75 -32
161 -102 127z m66 -50 c27 -49 -25 -117 -57 -73 -16 22 -17 66 -1 82 18 18 46
14 58 -9z"/>
<path d="M150 354 c0 -76 2 -85 18 -82 11 2 18 14 20 36 3 27 7 32 31 32 34 0
51 17 51 50 0 38 -18 50 -72 50 l-48 0 0 -86z m80 36 c0 -13 -7 -20 -20 -20
-13 0 -20 7 -20 20 0 13 7 20 20 20 13 0 20 -7 20 -20z"/>
<path d="M450 355 c0 -78 2 -85 20 -85 16 0 20 7 20 35 0 19 5 35 10 35 6 0
18 -16 27 -35 12 -25 23 -35 39 -35 23 0 23 1 7 37 -11 28 -12 42 -4 55 30 49
5 78 -66 78 l-53 0 0 -85z m86 44 c7 -12 -12 -29 -33 -29 -7 0 -13 9 -13 20 0
22 34 28 46 9z"/>
<path d="M610 355 c0 -78 2 -85 20 -85 18 0 20 7 20 85 0 78 -2 85 -20 85 -18
0 -20 -7 -20 -85z"/>
<path d="M670 425 c0 -8 7 -15 15 -15 11 0 15 -16 17 -67 3 -62 5 -68 26 -71
21 -3 22 0 22 67 0 56 3 71 15 71 8 0 15 7 15 15 0 12 -13 15 -55 15 -42 0
-55 -3 -55 -15z"/>
<path d="M802 358 l3 -83 53 -3 c47 -3 53 -1 50 15 -2 12 -14 19 -36 21 -42 4
-44 32 -2 32 20 0 30 5 30 15 0 10 -10 15 -30 15 -23 0 -30 4 -30 20 0 16 7
20 35 20 24 0 35 5 35 15 0 12 -13 15 -55 15 l-56 0 3 -82z"/>
<path d="M920 355 l0 -85 50 0 c37 0 50 4 50 14 0 9 -12 16 -27 18 -27 3 -28
4 -28 71 0 63 -1 67 -22 67 -22 0 -23 -4 -23 -85z"/>
<path d="M1030 355 c0 -78 2 -85 19 -85 17 0 20 8 23 53 l3 52 32 -52 c22 -36
39 -53 53 -53 18 0 20 7 20 85 0 78 -2 85 -19 85 -17 0 -20 -8 -23 -52 l-3
-53 -29 53 c-22 40 -35 52 -53 52 -22 0 -23 -3 -23 -85z"/>
<path d="M1212 366 c-12 -41 -22 -79 -22 -85 0 -19 38 -12 45 9 4 13 15 20 32
20 16 0 27 -7 30 -20 4 -13 14 -20 30 -20 19 0 23 4 19 18 -3 9 -15 47 -26 85
-20 65 -22 67 -54 67 -32 0 -33 -1 -54 -74z m68 -7 c0 -11 -7 -19 -16 -19 -11
0 -14 5 -10 16 3 9 6 20 6 25 0 6 5 7 10 4 6 -3 10 -15 10 -26z"/>
<path d="M32 183 c-1 -17 -8 -33 -15 -36 -6 -2 -10 -7 -7 -10 14 -15 31 13 27
44 l-4 34 -1 -32z"/>
<path d="M311 203 c-1 -19 18 -63 27 -63 5 0 13 16 19 35 13 41 7 47 -8 8
l-11 -28 -13 30 c-7 17 -14 25 -14 18z"/>
<path d="M570 175 c0 -19 5 -35 10 -35 6 0 10 9 10 20 0 11 5 20 11 20 7 0 9
-10 5 -26 -5 -17 -3 -23 4 -19 16 10 12 55 -5 55 -8 0 -15 5 -15 10 0 6 -4 10
-10 10 -5 0 -10 -16 -10 -35z"/>
<path d="M643 175 c0 -22 2 -30 4 -17 2 12 2 30 0 40 -3 9 -5 -1 -4 -23z"/>
<path d="M60 175 c0 -8 7 -15 15 -15 8 0 15 -5 15 -11 0 -6 -7 -8 -17 -4 -15
5 -16 4 -5 -6 10 -11 16 -10 30 4 16 17 16 18 -8 24 -22 6 -22 7 -4 14 18 7
17 8 -3 8 -14 1 -23 -5 -23 -14z"/>
<path d="M121 162 c2 -24 2 -24 6 -4 5 27 23 29 23 2 0 -11 5 -20 10 -20 6 0
10 9 10 20 0 27 18 25 23 -2 4 -21 4 -20 6 3 1 25 -2 27 -39 27 -37 1 -40 -1
-39 -26z"/>
<path d="M227 184 c-24 -24 6 -62 34 -42 11 8 11 9 -3 4 -10 -3 -20 -1 -23 4
-4 6 3 10 15 10 13 0 20 5 18 13 -5 14 -31 21 -41 11z"/>
<path d="M393 183 c18 -5 18 -5 0 -18 -15 -11 -16 -16 -5 -27 11 -11 12 -10 7
5 -5 12 -2 17 10 17 9 0 13 -4 10 -10 -3 -5 -1 -10 5 -10 6 0 10 10 8 23 -2
15 -10 23 -28 24 -16 1 -18 0 -7 -4z"/>
<path d="M451 162 c2 -24 2 -24 6 -4 2 12 9 22 14 22 5 0 9 -10 10 -22 l0 -23
10 23 c5 13 14 20 20 17 6 -4 8 -13 5 -21 -3 -8 -1 -14 4 -14 6 0 10 11 10 24
0 21 -5 24 -40 24 -37 1 -40 -1 -39 -26z"/>
<path d="M672 165 c0 -16 2 -22 5 -12 2 9 2 23 0 30 -3 6 -5 -1 -5 -18z"/>
<path d="M707 183 c9 -3 10 -10 3 -24 -13 -24 -2 -25 16 -1 19 25 17 32 -8 31
-13 0 -17 -3 -11 -6z"/>
</g>
</svg>
