<?xml version="1.0" encoding="UTF-8"?>
<svg width="18px" height="14px" viewBox="0 0 18 14" version="1.1" xmlns="http://www.w3.org/2000/svg" xmlns:xlink="http://www.w3.org/1999/xlink">
    <!-- Generator: Sketch 58 (84663) - https://sketch.com -->
    <title>mail_outline-24px</title>
    <desc>Created with Sketch.</desc>
    <g id="Page-1" stroke="none" stroke-width="1" fill="none" fill-rule="evenodd">
        <g id="00.00-Stav-uveru---2" transform="translate(-930.000000, -215.000000)">
            <g id="mail_outline-24px" transform="translate(928.000000, 211.000000)">
                <polygon id="Path" points="0 0 21 0 21 21 0 21"></polygon>
                <path d="M18.2,4 L3.8,4 C2.81,4 2.009,4.7875 2.009,5.75 L2,16.25 C2,17.2125 2.81,18 3.8,18 L18.2,18 C19.19,18 20,17.2125 20,16.25 L20,5.75 C20,4.7875 19.19,4 18.2,4 Z M18.2,16.25 L3.8,16.25 L3.8,7.5 L11,11.875 L18.2,7.5 L18.2,16.25 Z M11,10.125 L3.8,5.75 L18.2,5.75 L11,10.125 Z" id="Shape" fill="#18476C" fill-rule="nonzero"></path>
            </g>
        </g>
    </g>
</svg>